<?xml version="1.0" standalone="no"?>
<!DOCTYPE svg PUBLIC "-//W3C//DTD SVG 20010904//EN"
 "http://www.w3.org/TR/2001/REC-SVG-20010904/DTD/svg10.dtd">
<svg version="1.0" xmlns="http://www.w3.org/2000/svg"
 width="500.000000pt" height="500.000000pt" viewBox="0 0 500.000000 500.000000"
 preserveAspectRatio="xMidYMid meet">
<metadata>
Created by potrace 1.11, written by Peter Selinger 2001-2013
</metadata>
<g transform="translate(0.000000,500.000000) scale(0.100000,-0.100000)"
fill="#000000" stroke="none">
<path d="M1951 4577 c-17 -22 -11 -368 8 -390 7 -10 10 -17 7 -17 -14 0 55
-89 94 -123 58 -49 123 -67 265 -70 l120 -2 5 -155 c6 -171 11 -188 77 -261
66 -73 97 -83 273 -89 l155 -5 2 -110 c1 -60 3 -148 4 -193 0 -46 -3 -88 -8
-93 -6 -6 -70 -10 -144 -11 -160 -1 -201 -13 -270 -80 -86 -83 -83 -68 -89
-532 l-5 -409 -93 -1 c-50 -1 -92 3 -92 7 0 5 -5 5 -11 1 -6 -3 -88 -6 -182
-6 -194 0 -256 -10 -351 -61 -51 -27 -147 -112 -194 -171 -26 -32 -70 -142
-80 -196 -6 -32 -11 -290 -11 -616 -1 -444 1 -563 11 -572 21 -16 1121 -13
1194 4 109 25 178 64 266 151 69 67 111 138 136 230 18 64 19 116 19 851 0
430 2 785 5 787 2 2 21 7 42 11 130 20 214 63 306 156 71 72 113 143 139 235
16 61 19 106 19 412 0 376 -5 418 -58 522 -80 157 -256 282 -412 291 -40 3
-44 5 -42 26 3 29 -21 124 -43 172 -69 149 -213 267 -372 304 -91 21 -672 23
-690 3z m477 -3146 l22 -1 0 -199 c0 -182 -2 -200 -17 -205 -10 -2 -102 -4
-205 -4 l-188 0 -1 37 c0 33 0 131 1 294 0 58 3 69 19 75 16 6 252 7 369 3z"/>
</g>
</svg>
