<svg width="60" height="60" viewBox="0 0 60 60" fill="none" xmlns="http://www.w3.org/2000/svg">
<path d="M37.4166 11.9463H31.4094V14.9497C31.4094 15.7462 31.7257 16.5101 32.289 17.0734C32.8523 17.6366 33.6164 17.953 34.413 17.953H36.8381C36.9913 17.953 37.1382 18.0138 37.2464 18.1221C37.3546 18.2304 37.4156 18.3772 37.4156 18.5303V20.9564C37.4156 21.7529 37.7319 22.5168 38.2952 23.0801C38.8585 23.6433 39.6224 23.9597 40.4192 23.9597H43.4228V17.953C43.4228 16.3601 42.79 14.8325 41.6636 13.706C40.5374 12.5796 39.0096 11.9466 37.4166 11.9463Z" fill="#C62828"/>
<path d="M43.4228 23.9268V17.9195H40.4189C39.6223 17.9195 38.8581 18.2359 38.2947 18.7992C37.7316 19.3625 37.4151 20.1265 37.4151 20.9231V23.3483C37.4151 23.5014 37.3541 23.6483 37.2459 23.7565C37.1376 23.8648 36.9907 23.9257 36.8375 23.9257H34.4133C33.6166 23.9257 32.8526 24.2421 32.2893 24.8054C31.7259 25.3687 31.4094 26.1327 31.4094 26.9294V29.9329H37.4173C39.01 29.9325 40.5374 29.2993 41.6637 28.1731C42.7897 27.0467 43.4226 25.5194 43.4228 23.9268Z" fill="#C62828"/>
<path d="M37.3826 29.9329H31.4094V35.9732H37.3826V29.9329Z" fill="#C62828"/>
<path d="M37.3825 48.0038V35.9732H34.3841C33.5889 35.9732 32.8263 36.2903 32.264 36.8547C31.7017 37.4191 31.3858 38.1845 31.3858 38.9825V47.423C31.3858 47.5783 31.3245 47.727 31.215 47.8369C31.1058 47.9465 30.9574 48.0082 30.8029 48.0082H22.3942C21.5991 48.0082 20.8363 48.3252 20.2742 48.8895C19.7119 49.4539 19.396 50.2193 19.396 51.0175V54.0268H31.3891C32.1768 54.0264 32.9566 53.8701 33.684 53.5673C34.4115 53.2643 35.0722 52.8206 35.6287 52.2613C36.1854 51.7019 36.6266 51.0381 36.9276 50.3075C37.2284 49.577 37.383 48.7943 37.3825 48.0038Z" fill="#263238"/>
<path d="M19.396 41.9911V54.0268H22.3944C23.1898 54.0268 23.9524 53.7099 24.5148 53.1456C25.0771 52.5813 25.3929 51.816 25.3929 51.0181V42.5706C25.3943 42.4168 25.4562 42.2697 25.5649 42.1614C25.6735 42.0528 25.8204 41.9917 25.9737 41.9911H34.3839C35.1793 41.9911 35.9419 41.6742 36.5042 41.1099C37.0666 40.5456 37.3825 39.7802 37.3825 38.9821V35.9732H25.3885C23.7987 35.9744 22.2746 36.6089 21.1509 37.7375C20.0273 38.8659 19.396 40.3958 19.396 41.9911Z" fill="#263238"/>
<path d="M25.3691 5.90604V8.53787C25.3693 9.43304 25.7252 10.2915 26.3585 10.9243C26.9918 11.5572 27.8504 11.9127 28.7457 11.9127H31.3579V14.9272C31.3577 15.3201 31.4351 15.7092 31.5854 16.0722C31.7357 16.4352 31.956 16.7651 32.2339 17.043C32.5117 17.3208 32.8416 17.5413 33.2045 17.6917C33.5674 17.842 33.9566 17.9195 34.3495 17.9195H37.3825V11.8949C37.3821 10.3069 36.7511 8.7839 35.6282 7.66087C34.505 6.53782 32.9818 5.90663 31.3935 5.90604H25.3691Z" fill="#C62828"/>
</svg>
