<svg width="372" height="163" viewBox="0 0 372 163" fill="none" xmlns="http://www.w3.org/2000/svg">
<path d="M127.497 122.228V112.043V101.859H137.681C143.306 101.859 147.866 106.419 147.866 112.043V120.269V142.596C136.617 142.596 127.498 133.477 127.497 122.228Z" fill="#263238"/>
<path d="M107.122 142.604V112.047V101.862H96.9374C91.3128 101.862 86.753 106.422 86.753 112.047V120.272V162.972C98.0022 162.972 107.122 153.853 107.122 142.604Z" fill="#263238"/>
<path d="M86.7522 81.4898H107.123V76.3964C107.123 76.3953 107.122 76.3942 107.122 76.393V71.3004C107.122 65.6754 102.562 61.1152 96.9374 61.1152H86.7522V71.3004V81.4857C86.7522 81.4872 86.7522 81.4887 86.7522 81.4898Z" fill="#263238"/>
<path d="M188.612 81.4898H208.982V76.3964C208.982 76.3953 208.982 76.3942 208.982 76.393V71.3004C208.982 65.6754 204.422 61.1152 198.797 61.1152H188.612V71.3004V81.4857V81.4898Z" fill="#263238"/>
<path d="M208.982 142.604V112.047V101.862H198.798C193.173 101.862 188.613 106.422 188.613 112.047V120.272V162.972C199.862 162.972 208.981 153.853 208.982 142.604Z" fill="#263238"/>
<path d="M351.584 101.863H341.4H331.215H321.03H310.845V112.048C310.845 117.672 315.405 122.232 321.03 122.232H331.215H341.4H349.604C350.697 122.232 351.584 123.119 351.584 124.212V132.417V142.602V152.786C351.584 158.411 356.144 162.971 361.769 162.971H371.954V152.786V142.602V132.417V122.232C371.954 110.983 362.834 101.863 351.584 101.863Z" fill="#263238"/>
<path d="M331.212 142.604L331.213 112.047V101.862H321.028C315.404 101.862 310.844 106.422 310.844 112.047V120.272V162.972C322.093 162.972 331.212 153.853 331.212 142.604Z" fill="#263238"/>
<path d="M27.9409 162.964H40.4889C41.4099 162.964 42.051 162.048 41.7359 161.182L22.7204 108.957C21.1662 104.689 17.109 101.849 12.5668 101.849H0L20.3059 157.618C21.4745 160.828 24.5251 162.964 27.9409 162.964Z" fill="#263238"/>
<path d="M40.384 162.964H27.7002C26.8452 162.964 26.2502 162.114 26.5426 161.31L45.6045 108.957C47.1587 104.689 51.216 101.849 55.7581 101.849H68.3245L48.0186 157.618C46.85 160.828 43.7991 162.964 40.384 162.964Z" fill="#263238"/>
<path d="M147.869 122.136L145.91 142.505C146.991 142.505 147.868 143.382 147.868 144.464V152.69C147.868 158.315 152.428 162.875 158.052 162.875H168.237V152.69V142.505C168.237 131.257 159.118 122.137 147.869 122.136Z" fill="#263238"/>
<path d="M149.825 122.23C148.744 122.23 147.867 121.354 147.867 120.272V112.046C147.867 106.421 143.307 101.861 137.682 101.861H127.498V112.046V122.23C127.498 133.479 136.617 142.599 147.866 142.599L152.961 122.817L149.825 122.23Z" fill="#263238"/>
<path d="M147.803 142.604V122.242H127.441C127.441 133.488 136.558 142.604 147.803 142.604Z" fill="#263238"/>
<path d="M149.333 122.242H147.872V142.604H168.234V141.143C168.234 130.704 159.772 122.242 149.333 122.242Z" fill="#263238"/>
<path d="M290.47 20.3773H280.286H270.102V30.5617C270.102 36.1864 274.661 40.7462 280.286 40.7462H288.512C289.593 40.7462 290.469 41.6231 290.469 42.7045V50.9311C290.469 56.5557 295.029 61.1156 300.653 61.1156H310.838V50.9311V40.7462C310.838 29.497 301.719 20.3776 290.47 20.3773Z" fill="#C62728"/>
<path d="M270.036 20.3765H268.083C269.154 20.3776 270.022 21.2402 270.036 22.3087V20.3765Z" fill="#C62828"/>
<path d="M310.836 61.1156V50.9311V40.7466H300.652C295.027 40.7466 290.467 45.3065 290.467 50.9311V59.1566C290.467 60.2379 289.59 61.1144 288.509 61.1144H280.282C274.658 61.1144 270.098 65.6743 270.098 71.2989V81.4838H280.282H290.467C301.716 81.4838 310.835 72.3645 310.836 61.1156Z" fill="#C62728"/>
<path d="M290.467 79.4838H270.098V102.484H290.467V79.4838Z" fill="#C62728"/>
<path d="M290.466 142.601V132.416V122.232V112.047V101.862H280.282C274.657 101.862 270.097 106.422 270.097 112.047V122.232V132.416V140.621C270.097 141.714 269.21 142.601 268.117 142.601H259.912H249.727H239.542C233.918 142.601 229.358 147.161 229.358 152.785V162.97H239.542H249.727H259.912H270.097C281.347 162.971 290.466 153.851 290.466 142.601Z" fill="#263238"/>
<path d="M229.358 122.232V132.416V142.601V152.786V162.971H239.542C245.167 162.971 249.727 158.411 249.727 152.786V142.601V132.416V124.212C249.727 123.118 250.614 122.232 251.707 122.232H259.912H270.097H280.282C285.906 122.232 290.466 117.672 290.466 112.047V101.862H280.282H270.097H259.913H249.727C238.478 101.862 229.358 110.982 229.358 122.232Z" fill="#263238"/>
<path d="M249.726 0V8.92651C249.726 15.2507 254.852 20.3773 261.177 20.3773H270.035V30.6002C270.035 36.2037 274.578 40.7466 280.183 40.7466H290.467V20.3773V20.315C290.467 9.09517 281.372 0 270.152 0H249.726Z" fill="#C62728"/>
</svg>
